<svg id="Layer_1" data-name="Layer 1" xmlns="http://www.w3.org/2000/svg" viewBox="0 0 270.96 208.38"><defs><style>.cls-1{fill:#231f20;}.cls-2{fill:#b6d8e4;}.cls-3{fill:#1c4761;}.cls-4{fill:none;stroke:#1c4761;stroke-linecap:round;stroke-linejoin:round;stroke-width:0.69px;}</style></defs><title>logo</title><line class="cls-1" x1="15.55" y1="110.7" x2="12.85" y2="110.7"/><path class="cls-2" d="M263,208.59h-16.5L176,124.47h19.55c12.11,0,21.84-1.51,29.36-4.59A38.86,38.86,0,0,0,239.34,108a27.9,27.9,0,0,0,6.09-17.49,28.83,28.83,0,0,0-5.06-16.22,37.92,37.92,0,0,0-14.72-12.59,47.73,47.73,0,0,0-22-4.9H102.52a61.61,61.61,0,0,0-17.89,2.61,45.2,45.2,0,0,0-15,7.44,36.14,36.14,0,0,0-9.73,10.36,23,23,0,0,0-3.41,11.87c0,5.07,1.82,10,5.62,15A38.88,38.88,0,0,0,76,115.76a45,45,0,0,0,11.31,3.48c4,.8,9,1.43,15.2,2.3.24,0,.55.08.79.08l8.55,1.18a112.17,112.17,0,0,1,13.21,2.7,43.92,43.92,0,0,1,10.76,4.19,50,50,0,0,1,17.49,15.51,34.51,34.51,0,0,1,6.25,19.62,36.11,36.11,0,0,1-4.43,17.26A43.61,43.61,0,0,1,142.4,196.4c-11.39,8.15-24.61,12.19-39.8,12.19h-58l11.24-11.24H102.6q19.58,0,33-10c8.62-6.33,13-13.85,13-22.48a23.41,23.41,0,0,0-4.82-14.16,39.34,39.34,0,0,0-13.3-11.24c-5.3-2.69-14.56-4.9-27.93-6.49-.24,0-.56-.08-.87-.08-1.19-.15-5.3-.87-12.35-2a64.44,64.44,0,0,1-18.2-5.38A49,49,0,0,1,52.27,110a35.09,35.09,0,0,1-6.81-20.9,34.07,34.07,0,0,1,4.51-17,44.71,44.71,0,0,1,12.82-14,60,60,0,0,1,18.28-9,71.7,71.7,0,0,1,21.45-3.24H203.65a61,61,0,0,1,21,3.56A51.41,51.41,0,0,1,241.79,59.5a43.68,43.68,0,0,1,10.84,14.4,39.21,39.21,0,0,1-4.27,40.67,45.9,45.9,0,0,1-19,15.28,50.18,50.18,0,0,1-14.8,4.27,118.15,118.15,0,0,1-15.27.87Z" transform="translate(-18.3 -45.81)"/><path class="cls-3" d="M96.79,167.92h-.28c-4.45.28-7.88,2.12-9.27,3.61s-5,3.52-6.67,7.14a26.17,26.17,0,0,0-1.86,10.66v1.29a53.68,53.68,0,0,1-2.5,16.4c-2.22,6.68-9.27,13-15.1,15.12a24.75,24.75,0,0,1-8.9,1.84,5.91,5.91,0,0,1-1.57-.09c-.37-.09-.75-.18-.75-.56s.56-1.39,2.5-3.24c3.62-3.53,12.61-15,15.86-18.81,2.68-3.24,5.38-8.34,5.38-12.14a7.39,7.39,0,0,0-.2-1.57C72.6,184.31,68.25,179,58.7,179a28.85,28.85,0,0,0-5.47.56C39.79,182,30.8,190,27.84,200.45a22.93,22.93,0,0,0-.93,6.29,18,18,0,0,0,5.56,13.08,14.54,14.54,0,0,0,7,3.89c2.31.65,4.07,1.29,4.07,2s-.83,1.85-2.12,3.42c0,0-11.41,12.14-14,14.36s-5.1,5.1-7.32,7c-1.31,1.09-1.76,2-1.76,2.77a.9.9,0,0,0,.65.92h.18c1.11,0,3.24-1.85,6.49-5.93,3.43-4.53,9.07-9.73,11.77-13.06a76.16,76.16,0,0,1,6.39-6.87A8.55,8.55,0,0,1,48,226a40.93,40.93,0,0,0,12-1.87c5.64-2,12.6-6.29,15.38-11.21a35,35,0,0,0,4.91-16.21c.1-1.3.1-2.6.1-3.89v-3.52c0-3.35.09-6.41,1.2-9,1.85-4.46,4.35-7.6,10.19-10.1A11.38,11.38,0,0,1,96,169.13c2.22,0,3.05,1.47,3.71,2.86a7.74,7.74,0,0,1,.83,3.25,7.41,7.41,0,0,1-.28,1.95,5.32,5.32,0,0,0-.37,1.66c0,.28.09.38.55.38h.28c1-.2,1.86-.93,1.86-3.16v-.37C102.35,173.29,101,167.92,96.79,167.92ZM44.71,223.05a20.8,20.8,0,0,1-5.47-1.29A16.13,16.13,0,0,1,29,211.84a20.46,20.46,0,0,1-.73-5.46,21.41,21.41,0,0,1,.36-4.09,34,34,0,0,1,9.36-14.07c3.24-3.25,6.21-4.09,9.91-5.38a38,38,0,0,1,11.78-2.22,25.21,25.21,0,0,1,3.8.28c6.49.91,7.88,5.36,8.53,8,0,.28.08.46.08.74,0,2.7-2.68,6.39-3.79,8-1.21,1.84-2.7,5.1-5.56,8.33s-9.18,10.38-13,14.47C47.85,222.41,46.28,223.05,44.71,223.05Z" transform="translate(-18.3 -45.81)"/><path class="cls-3" d="M117.09,204.34a.61.61,0,0,0-.29.09,1,1,0,0,0-.28.18c-.56.56-4.53,4.08-5.84,5a4,4,0,0,1-1.94,1,.36.36,0,0,1-.18-.09s-.1-.1-.1-.18c0-.29.28-.75.93-1.59a10.63,10.63,0,0,0,2.5-4.9c0-.28.1-.56.1-.84a10,10,0,0,0-1-4,3.08,3.08,0,0,1-.55-1.49v-.18c0-.38-.28-.83-1.12-.83H109c-.84.08-1.11.45-1.11,1.19a4.35,4.35,0,0,0,.09,1,13.66,13.66,0,0,1,.28,1.85,2.3,2.3,0,0,1-1,2,118.81,118.81,0,0,1-10.36,7.22,2.42,2.42,0,0,1-1,.28c-.56,0-.93-.28-.93-.73a1,1,0,0,1,.19-.66,28,28,0,0,1,4.17-5.1c1.11-1,1.57-1.66,1.57-2.12a.54.54,0,0,0-.08-.38,1,1,0,0,0-.84-.36,2.53,2.53,0,0,0-.83.18,2.58,2.58,0,0,1-1.13.46H97.9A9.86,9.86,0,0,0,93.18,200a5.29,5.29,0,0,0-2.05.36c-3,1.21-5.1,4-5.93,5.1a11,11,0,0,0-1.94,4.82,1.81,1.81,0,0,0,.83,1.76,1.64,1.64,0,0,0,1.21.46,3.21,3.21,0,0,0,1.85-.73c1.76-1.12,3.53-2.42,4.36-2.78a3.64,3.64,0,0,1,.55-.2c.37,0,.46.38.46,1s.28,2.23,2,2.23a6,6,0,0,0,2.78-.93,98.86,98.86,0,0,0,10.1-7c1.58-1.29,2-2,2.22-2s.38.37.38,1.11a4.38,4.38,0,0,1-.56,2.14c-.93,2-2.69,3-3.06,4.72v.46c0,.93.46,1.67,1.39,1.67a4.48,4.48,0,0,0,2.32-.92,58.08,58.08,0,0,0,4.7-3.82c1.45-1.28,2.57-2.35,2.71-2.49s.1-.1.1-.18A.42.42,0,0,0,117.09,204.34ZM90.4,208c-2.6,1.85-4.17,2.6-5,2.6a.44.44,0,0,1-.46-.28v-.19a8.72,8.72,0,0,1,2-3.7,23.71,23.71,0,0,1,4.64-3.89,3.76,3.76,0,0,1,2.31-.75c.27,0,.47.1.65.1.73.18,1.67,1,1.67,1.57,0,.09-.1.19-.1.27C95.76,204.34,93.91,205.35,90.4,208Z" transform="translate(-18.3 -45.81)"/><path class="cls-3" d="M136,204.06c-.18,0-.46.18-1,.58s-1.59,1.24-3.09,2.38c-3.24,2.6-4,2.87-5.28,3.06-.18,0-.46.09-.55.09-.46,0-.74-.18-.74-.55s.46-1.39,1.76-2.88c2.69-3.06,4.53-4.25,4.53-5.09v-.09c-.08-.46-.55-.66-1.11-.66a1.92,1.92,0,0,0-1,.28,1.37,1.37,0,0,1-.74.28,2,2,0,0,1-.93-.36,6.12,6.12,0,0,0-2.4-.93,5.42,5.42,0,0,0-1.49-.18,6.19,6.19,0,0,0-3.71,1.19,20.56,20.56,0,0,0-5.49,6.2,3.43,3.43,0,0,0-.26.57,2.56,2.56,0,0,0-.46,1.67,3.8,3.8,0,0,0,1.11,2.69,3.4,3.4,0,0,0,.93.18c1.67,0,3-1.66,4.82-2.87a4.27,4.27,0,0,1,2-.93c.36,0,.46.29.46.75v.27c0,1.12.37,2.32,2,2.32.18,0,.37-.09.65-.09,1.71-.32,3.23-1.16,5.49-3,.42-.35.88-.73,1.36-1.15,2.78-2.42,3.24-3.16,3.24-3.53v-.08Zm-10.94,1.11c-1.39.74-3.43,2.6-5.65,4.09a6.1,6.1,0,0,1-3.06,1.29c-.47,0-.75-.18-.75-.47,0-2.87,5.1-7.23,7.7-8.06a3,3,0,0,1,1.21-.18,3.44,3.44,0,0,1,2.12.73,2.28,2.28,0,0,1,.38,1c0,.08-.1.18-.1.28C126.62,204.34,126.34,204.34,125.05,205.17Z" transform="translate(-18.3 -45.81)"/><path class="cls-3" d="M146.09,194.14c2.12-2.31,4.45-4.53,5.56-5.74a40.37,40.37,0,0,0,5.1-6.12,1.54,1.54,0,0,0,.18-.55,1,1,0,0,0-1-.93,1.87,1.87,0,0,0-1.21.46,22.22,22.22,0,0,0-3.33,3.25,22.66,22.66,0,0,1-2.6,3.71c-2.88,3.51-6.49,8.52-8.71,10.74-1.11,1.08-3,3.19-5.07,5.68-1.14,1.35-2.35,2.81-3.52,4.28-1.46,1.84-2.88,3.67-4.07,5.3-.61.83-1.17,1.61-1.64,2.3v0c.06.65.39,1.08,1.31.82l.2-.32c.46-.71,1-1.48,1.59-2.28a70.24,70.24,0,0,1,5.36-6.53c2.23-2.23,3.8-3.06,8.53-5.84,4.08-2.4,5.74-3.33,6.3-3.33a.28.28,0,0,1,.18.09.45.45,0,0,1,.19.36,6.92,6.92,0,0,1-1.94,3.16c-1.59,1.57-4.45,5.65-4.45,7.32v.18a2.16,2.16,0,0,0,2.22,2,6.08,6.08,0,0,0,3.62-1.66c3.71-3,6.67-5.38,6.67-6.12v-.09a.3.3,0,0,0-.28-.28c-.46,0-1.39.73-2.5,1.94-1.39,1.49-5.93,4.64-6.77,4.64-.46,0-.93-.19-.93-.84a6.32,6.32,0,0,1,1.31-2.87c1.94-3,4.44-5.47,4.54-6.86v-.46c0-1.11-.28-1.39-1-1.76a2.48,2.48,0,0,0-.83-.18,3.79,3.79,0,0,0-2.22.93c-.94.83-5.74,3-6.67,3.51a2,2,0,0,1-.74.28c-.1,0-.2,0-.2-.1s.48-.83,1.67-2S144,196.56,146.09,194.14Z" transform="translate(-18.3 -45.81)"/><path class="cls-3" d="M201.22,210.27a23.84,23.84,0,0,0,3.16,1.85l1.66.93c1.39.83,3.43,2.13,6.12,4,3,1.95,5.93,3.9,9,5.84,5.47,3.06,9.64,4.91,12.6,5.47a9.66,9.66,0,0,1,3,1.39c.74.56,1.11,1,1.11,1.48a.51.51,0,0,1-.37.56,2.37,2.37,0,0,1-1.2.28,6.24,6.24,0,0,1-2.41-.65,39.33,39.33,0,0,1-4.73-2.41c-.65-.37-1.48-.84-2.41-1.39-3.8-2.32-8.34-5-13.44-8.16a131.27,131.27,0,0,1-11.12-7.23,5.68,5.68,0,0,0-3.34-1.39,4.08,4.08,0,0,0-1.57.28c-.46.28-.84.47-1.11.65-.56.74-1.21,1.85-2,3.24-1,1.58-1.86,3.06-2.69,4.55a10.09,10.09,0,0,0-1.3,3c0,.19,0,.37.1.46v.56a3.73,3.73,0,0,1-.28,1.2,14.49,14.49,0,0,1-1.21,2.23,28.23,28.23,0,0,0-1.48,2.59,7.54,7.54,0,0,1-.83,1.49,1.12,1.12,0,0,1-.84.55,1.32,1.32,0,0,1-.55-.18,1.48,1.48,0,0,1-.75-1.3c0-1,.65-2.5,1.86-4.45.65-1.3,1.67-3.15,3.06-5.47,1.2-2.13,2.31-4.07,3.33-5.93s1.67-3.06,2-3.61a1,1,0,0,0,.09-.46.8.8,0,0,0-.18-.56c-.19-.09-.38-.28-.56-.37l-.19-.19c-.09-.09-.18-.18-.18-.28s0-.09.09-.18a1.73,1.73,0,0,1,.84-.46c.37-.1.74-.28,1.2-.37a9.08,9.08,0,0,0,2-.65,4.42,4.42,0,0,0,1.3-1.3,12.69,12.69,0,0,0,1-1.85,12.81,12.81,0,0,1,.74-1.3c.28-.28.65-.84,1.3-1.48s1.29-1.39,2-2.14,1.3-1.39,1.76-1.94a2.33,2.33,0,0,0,.47-.56l.28-.28c0-.09,0-.09.09-.09s0-.09.09-.18.19-.1.28-.19.09-.09.19-.09.09.09.18.18.09.28.19.56v.09a2.73,2.73,0,0,1-.65,1.58c-.47.65-1.12,1.3-1.76,2s-1.39,1.57-2,2.41a18.15,18.15,0,0,0-1.67,2.5,14.27,14.27,0,0,0-.74,1.85,1.05,1.05,0,0,0-.09.47c0,.37.27.55.74.55h.28c.64,0,1.48-.09,2.68-.18.37-.1.74-.1,1.21-.19l2.41-.28a80.57,80.57,0,0,0,14.55-2.41,8.86,8.86,0,0,0,5.19-3.89,10.31,10.31,0,0,0,1.39-5,9.58,9.58,0,0,0-.28-2.32,26.49,26.49,0,0,0-3.43-7.41,61.83,61.83,0,0,0-6.12-8c-2.31-2.51-6.48-5.75-12.42-9.74a50.14,50.14,0,0,0-19.36-7.78,16,16,0,0,0-6.77-1.76,8.67,8.67,0,0,0-5.28,1.48,6.61,6.61,0,0,0-2.6,3.34,12.69,12.69,0,0,0-.46,3.15,12.54,12.54,0,0,0,.37,3.33,25.88,25.88,0,0,0,.56,2.69.36.36,0,0,1,.09.28l.09.46c0,.38-.18.56-.46.56h-.19a3.27,3.27,0,0,1-.83-.09,1.22,1.22,0,0,0-.56-.09,1.25,1.25,0,0,1-.83-.47c-.19-.18-.28-.65-.28-1.48,0-1,.19-2.87.46-5.56v-.37c.65-5.84,4.17-8.81,10.38-8.81a23.31,23.31,0,0,1,4.73.56A102.57,102.57,0,0,1,199,162.82a63.08,63.08,0,0,1,14.92,9.08,88.57,88.57,0,0,1,9.64,9.08,39.43,39.43,0,0,1,5.28,7.51,16.84,16.84,0,0,1,2,7.78,11.54,11.54,0,0,1-1.85,6.12c-1.95,2.5-5.29,4.17-9.92,5.1a68.26,68.26,0,0,1-12.88,1.57c-1.76.1-3.15.19-4.08.19H200A3.43,3.43,0,0,0,201.22,210.27Z" transform="translate(-18.3 -45.81)"/><path class="cls-3" d="M248.49,200.72c.18,0,.37,0,.46.1a1.12,1.12,0,0,1,.28.74,2.24,2.24,0,0,1-.74,1.57,34.65,34.65,0,0,0-4.73,5,2.75,2.75,0,0,0-.46,1c0,.46.37.74,1,.74a4.52,4.52,0,0,0,1.85-.56c2.22-.93,10.75-7.78,12.14-8.71a22.62,22.62,0,0,0,3.15-2.78,1.65,1.65,0,0,1,1.2-.46c.56,0,.93.27.93.74v.09c-.18.83-2.87,2.32-3.33,3.15a4.34,4.34,0,0,0-.28,2.13,26.76,26.76,0,0,0,.09,2.69c0,.46.09,1,.09,1.48a5.84,5.84,0,0,1-1.94,4.54,6.25,6.25,0,0,1-4.45,1.86,3.41,3.41,0,0,1-1.86-.47,3.71,3.71,0,0,1-1.85-2.5.83.83,0,0,1,.28-.65,1.84,1.84,0,0,1,.93-.27c.37,0,.55.09.55.27v.19a2.58,2.58,0,0,0,.84,1.57,1.47,1.47,0,0,0,1.29.65,5.54,5.54,0,0,0,2.6-1A4,4,0,0,0,258.4,208c0-.74-.09-1.48-.09-2.22v-.65c0-1,.09-1.76.09-2.23a.79.79,0,0,0-.18-.55c-.1,0-.1-.1-.19-.1s-.55.38-1.76,1.3c-1.67,1.21-8.71,6.58-11.31,8.07a4.12,4.12,0,0,1-1.76.55,2.12,2.12,0,0,1-2.13-1.94c-.09-.84,0-1.49-.46-1.49-.1,0-.28.09-.37.09a51.88,51.88,0,0,0-4.73,3.16,2.5,2.5,0,0,1-1.57.55,2.29,2.29,0,0,1-2.23-1.67c-.09-.09-.09-.37-.09-.55,0-1.58,1.39-4.17,1.85-4.82a17.26,17.26,0,0,1,2.6-2.78,8.45,8.45,0,0,1,4.82-2.78h.65c2.13,0,4.17,1.39,4.63,1.48,0,.09.09.09.18.09a3.84,3.84,0,0,0,1.39-.64A3.4,3.4,0,0,1,248.49,200.72Zm-13.81,6.12a6.94,6.94,0,0,0-1.39,3c0,.56.27.75.83.75,1.11,0,4.63-2.14,6.95-3.9a30.23,30.23,0,0,1,3.25-2.5,1.18,1.18,0,0,0,.37-.83,1.49,1.49,0,0,0-.84-1.21,9.55,9.55,0,0,0-1.76-.18,4.13,4.13,0,0,0-2.32.55S236.25,204.43,234.68,206.84Z" transform="translate(-18.3 -45.81)"/><path class="cls-3" d="M261.92,210.55v-.19c1-2.69,5.38-5.75,6.12-7.32a.29.29,0,0,1,.27-.28c.47,0,1.12.65,1.3,1.39v.19c0,1.29-3.52,3.33-4.26,4.54l-1.58,2v.18c0,.28.37.56.93.56a2.35,2.35,0,0,0,.74-.09l.09-.1c.19,0,.19.1.19.19s0,.18-.09.18a4.16,4.16,0,0,1-1.86.37c-.83,0-1.57-.27-1.76-1.2A.7.7,0,0,1,261.92,210.55Zm7.78-10.85c0-1.29,4.27-3.06,4.92-3.43a13.9,13.9,0,0,1,2.59-1,.35.35,0,0,1,.19.1c0,.28-.37.18-1.21.74a35.24,35.24,0,0,0-3.89,3.34,4,4,0,0,1-1.76,1,.62.62,0,0,1-.65-.37A.48.48,0,0,1,269.7,199.7Z" transform="translate(-18.3 -45.81)"/><path class="cls-3" d="M281.94,201.65a8.89,8.89,0,0,0-3.34,1,14.62,14.62,0,0,0-4.73,4.45A6.91,6.91,0,0,0,273,210v.37a2.7,2.7,0,0,0,2.31.93h.28a13.87,13.87,0,0,0,7.14-2.6,58.3,58.3,0,0,0,5.37-4.17,1.06,1.06,0,0,1,.65-.28c.28,0,.56.19.56.37v.1c0,.28-.37.83-2.5,2.22a26.22,26.22,0,0,1-8.9,5.38,7.37,7.37,0,0,1-2.32.37,5.09,5.09,0,0,1-3.61-1.21,2.17,2.17,0,0,1-.47-1.48,8,8,0,0,1,.1-1.39,8.21,8.21,0,0,1,3.7-5.38c2.23-1.48,3.43-2.59,6.12-3a3.59,3.59,0,0,1,.93-.09c1.66,0,2,.83,2,1.57v.19a4.91,4.91,0,0,1-.84,1.85,1.12,1.12,0,0,1-1.11.83h-.28a.87.87,0,0,1-.74-.83c0-.37.74-.74,1.21-1.2a.39.39,0,0,0,.18-.38.65.65,0,0,0-.28-.46C282.4,201.65,282.21,201.65,281.94,201.65Z" transform="translate(-18.3 -45.81)"/><path class="cls-4" d="M59.88,245.3H57.29a3.55,3.55,0,0,1-1.81-.48,3.61,3.61,0,0,1-1.31-1.32,3.51,3.51,0,0,1-.49-1.83,3.47,3.47,0,0,1,.49-1.81,3.63,3.63,0,0,1,1.31-1.33,3.55,3.55,0,0,1,3.25-.18,3.82,3.82,0,0,1,1.2.86l-.37.34a3.11,3.11,0,0,0-2.27-1,3,3,0,0,0-1.56.42,3.22,3.22,0,0,0-1.13,1.13,3.13,3.13,0,0,0,0,3.13,3.17,3.17,0,0,0,1.13,1.14,3.05,3.05,0,0,0,1.56.43h2.08v-2.57H57v-.5h2.88Z" transform="translate(-18.3 -45.81)"/><path class="cls-4" d="M72.86,245.3l-3-3.62h.89a3.51,3.51,0,0,0,1.32-.21,1.64,1.64,0,0,0,.65-.53,1.29,1.29,0,0,0,.28-.79,1.25,1.25,0,0,0-.24-.73,1.62,1.62,0,0,0-.66-.57,2.09,2.09,0,0,0-1-.22h-2v6.67h-.5v-7.17h2.51a2.71,2.71,0,0,1,1,.16,2.39,2.39,0,0,1,.77.46,2,2,0,0,1,.49.65,1.65,1.65,0,0,1,.17.75,1.78,1.78,0,0,1-.36,1.09,2.1,2.1,0,0,1-.86.69,2.51,2.51,0,0,1-.67.19,5.12,5.12,0,0,1-.69,0l2.59,3.14Z" transform="translate(-18.3 -45.81)"/><path class="cls-4" d="M82.9,243.48l-.85,1.82H81.5L84.88,238l3.19,7.26h-.54l-.81-1.82Zm2-4.21L83.13,243H86.5Z" transform="translate(-18.3 -45.81)"/><path class="cls-4" d="M96.26,245.3v-7.17h2.56a2.45,2.45,0,0,1,1.16.28,2.19,2.19,0,0,1,.85.74,1.74,1.74,0,0,1,.31,1,1.77,1.77,0,0,1-.31,1,2.3,2.3,0,0,1-.85.75,2.57,2.57,0,0,1-1.16.27H96.75v3.11Zm.49-3.63h2.06a2,2,0,0,0,.91-.2,1.82,1.82,0,0,0,.67-.55,1.33,1.33,0,0,0,.25-.76,1.36,1.36,0,0,0-.25-.77,1.82,1.82,0,0,0-.67-.55,2.13,2.13,0,0,0-.91-.2H96.74Z" transform="translate(-18.3 -45.81)"/><path class="cls-4" d="M114.19,242H110v3.33h-.51v-7.17H110v3.33h4.24v-3.33h.49v7.17h-.49Z" transform="translate(-18.3 -45.81)"/><path class="cls-4" d="M123.57,245.3v-7.17h.5v7.17Z" transform="translate(-18.3 -45.81)"/><path class="cls-4" d="M136.11,245.38a3.44,3.44,0,0,1-1.82-.5,3.54,3.54,0,0,1-1.32-1.34,3.67,3.67,0,0,1,1.32-5,3.55,3.55,0,0,1,3.29-.18,3.8,3.8,0,0,1,1.23.89l-.39.34a3,3,0,0,0-1-.77,2.91,2.91,0,0,0-1.27-.28,3,3,0,0,0-1.56.42,3.17,3.17,0,0,0-1.14,1.16,3,3,0,0,0-.43,1.59,3.06,3.06,0,0,0,.43,1.59,3.14,3.14,0,0,0,1.14,1.15,3,3,0,0,0,1.56.42,3,3,0,0,0,1.35-.31,3.1,3.1,0,0,0,1.08-.86l.4.31a3.61,3.61,0,0,1-1.26,1A3.51,3.51,0,0,1,136.11,245.38Z" transform="translate(-18.3 -45.81)"/><path class="cls-4" d="M159.47,245.3H157.4v-7.17h2.07a3.51,3.51,0,0,1,1.41.28,3.42,3.42,0,0,1,1.82,1.94,3.85,3.85,0,0,1,.24,1.36,3.8,3.8,0,0,1-.24,1.35,3.49,3.49,0,0,1-.7,1.15,3.22,3.22,0,0,1-1.12.81A3.51,3.51,0,0,1,159.47,245.3Zm-1.57-.49h1.57a2.79,2.79,0,0,0,2.17-.94,3,3,0,0,0,.59-1,3.58,3.58,0,0,0,0-2.36,3,3,0,0,0-.59-1,2.83,2.83,0,0,0-2.17-.91H157.9Z" transform="translate(-18.3 -45.81)"/><path class="cls-4" d="M171.23,245.3v-7.17h4.65v.51h-4.15v2.82H175V242h-3.23v2.82h4.15v.51Z" transform="translate(-18.3 -45.81)"/><path class="cls-4" d="M188.84,242.53a1.59,1.59,0,0,1,.28.89,1.61,1.61,0,0,1-.2.77,1.88,1.88,0,0,1-.58.65,3,3,0,0,1-1.79.55,3.52,3.52,0,0,1-1-.14,2.87,2.87,0,0,1-.82-.41,1.8,1.8,0,0,1-.76-1.14l.47-.26a1.23,1.23,0,0,0,.6,1,2,2,0,0,0,.67.34,2.75,2.75,0,0,0,.82.11,2.41,2.41,0,0,0,1.48-.45,1.21,1.21,0,0,0,.59-1,1.09,1.09,0,0,0-.21-.64,1.83,1.83,0,0,0-.61-.51,3.92,3.92,0,0,0-1.3-.3l-.56-.09a2.94,2.94,0,0,1-.82-.24,2.27,2.27,0,0,1-.85-.7A1.65,1.65,0,0,1,184,240a1.49,1.49,0,0,1,.21-.77,2.05,2.05,0,0,1,.58-.64,2.84,2.84,0,0,1,.82-.4,3.19,3.19,0,0,1,1-.15,3,3,0,0,1,1.79.55,1.79,1.79,0,0,1,.75,1.13l-.47.26a1.09,1.09,0,0,0-.16-.52A1.57,1.57,0,0,0,188,239a2.05,2.05,0,0,0-.68-.33,2.67,2.67,0,0,0-.8-.12,2.86,2.86,0,0,0-.82.12,2,2,0,0,0-.67.33,1.66,1.66,0,0,0-.45.47,1,1,0,0,0-.15.54,1.1,1.1,0,0,0,.25.67,1.79,1.79,0,0,0,.63.53,2.1,2.1,0,0,0,.52.16c.18,0,.42.07.72.1l.39.06a5.6,5.6,0,0,1,.59.12,2,2,0,0,1,.49.19A2.35,2.35,0,0,1,188.84,242.53Z" transform="translate(-18.3 -45.81)"/><path class="cls-4" d="M197.74,245.3v-7.17h.49v7.17Z" transform="translate(-18.3 -45.81)"/><path class="cls-4" d="M212.86,245.3h-2.59a3.55,3.55,0,0,1-1.81-.48,3.61,3.61,0,0,1-1.31-1.32,3.51,3.51,0,0,1-.49-1.83,3.47,3.47,0,0,1,.49-1.81,3.63,3.63,0,0,1,1.31-1.33,3.55,3.55,0,0,1,3.25-.18,3.82,3.82,0,0,1,1.2.86l-.37.34a3.11,3.11,0,0,0-2.27-1,3,3,0,0,0-1.56.42,3.22,3.22,0,0,0-1.13,1.13,3.13,3.13,0,0,0,0,3.13,3.17,3.17,0,0,0,1.13,1.14,3.05,3.05,0,0,0,1.56.43h2.08v-2.57H210v-.5h2.88Z" transform="translate(-18.3 -45.81)"/><path class="cls-4" d="M222.11,239.48v5.82h-.5V238l5,5.94v-5.85h.5v7.29Z" transform="translate(-18.3 -45.81)"/><path class="cls-4" d="M235.82,245.3v-7.17h4.64v.51h-4.15v2.82h3.24V242h-3.24v2.82h4.15v.51Z" transform="translate(-18.3 -45.81)"/><path class="cls-4" d="M253.21,245.3l-3-3.62h.88a3.53,3.53,0,0,0,1.33-.21,1.72,1.72,0,0,0,.65-.53,1.28,1.28,0,0,0,.27-.79,1.24,1.24,0,0,0-.23-.73,1.62,1.62,0,0,0-.66-.57,2.12,2.12,0,0,0-1-.22h-2v6.67H249v-7.17h2.51a2.75,2.75,0,0,1,1,.16,2.39,2.39,0,0,1,.77.46,2.18,2.18,0,0,1,.49.65,1.79,1.79,0,0,1,.17.75,1.73,1.73,0,0,1-.37,1.09,2,2,0,0,1-.86.69,2.45,2.45,0,0,1-.66.19,5.12,5.12,0,0,1-.69,0l2.59,3.14Z" transform="translate(-18.3 -45.81)"/></svg>